<svg width="48" height="48" viewBox="0 0 48 48" fill="none" xmlns="http://www.w3.org/2000/svg">
<path d="M29.4048 24L45.8881 7.555C46.6099 6.83317 47.0155 5.85416 47.0155 4.83333C47.0155 3.81251 46.6099 2.8335 45.8881 2.11167C45.1663 1.38983 44.1873 0.984314 43.1665 0.984314C42.1456 0.984314 41.1666 1.38983 40.4448 2.11167L23.9998 18.595L7.55477 2.11167C6.83294 1.38983 5.85392 0.984314 4.8331 0.984314C3.81228 0.984314 2.83326 1.38983 2.11143 2.11167C1.3896 2.8335 0.984081 3.81251 0.984081 4.83333C0.984081 5.85416 1.3896 6.83317 2.11143 7.555L18.5948 24L2.11143 40.445C1.75214 40.8014 1.46696 41.2254 1.27235 41.6925C1.07774 42.1596 0.977539 42.6606 0.977539 43.1667C0.977539 43.6727 1.07774 44.1738 1.27235 44.6409C1.46696 45.108 1.75214 45.532 2.11143 45.8884C2.46779 46.2477 2.89176 46.5328 3.35889 46.7274C3.82602 46.9221 4.32706 47.0223 4.8331 47.0223C5.33915 47.0223 5.84019 46.9221 6.30731 46.7274C6.77444 46.5328 7.19841 46.2477 7.55477 45.8884L23.9998 29.405L40.4448 45.8884C40.8011 46.2477 41.2251 46.5328 41.6922 46.7274C42.1594 46.9221 42.6604 47.0223 43.1665 47.0223C43.6725 47.0223 44.1735 46.9221 44.6407 46.7274C45.1078 46.5328 45.5318 46.2477 45.8881 45.8884C46.2474 45.532 46.5326 45.108 46.7272 44.6409C46.9218 44.1738 47.022 43.6727 47.022 43.1667C47.022 42.6606 46.9218 42.1596 46.7272 41.6925C46.5326 41.2254 46.2474 40.8014 45.8881 40.445L29.4048 24Z" fill="#B7B7B7"/>
</svg>
