<svg width="30" height="30" viewBox="0 0 38 40" fill="none" xmlns="http://www.w3.org/2000/svg">
<path d="M15 0.694983C15.244 0.991514 15.3935 1.35441 15.4292 1.73679C15.4648 2.11917 15.385 2.50345 15.2 2.83998C13.7546 5.49367 12.9998 8.46822 13.005 11.49C13.005 21.5425 21.2 29.6825 31.3 29.6825C32.6175 29.6825 33.9 29.545 35.1325 29.2825C35.5103 29.2007 35.9039 29.232 36.264 29.3725C36.6241 29.513 36.9349 29.7564 37.1575 30.0725C37.3925 30.4011 37.5123 30.7982 37.4983 31.2019C37.4842 31.6056 37.3372 31.9934 37.08 32.305C35.1192 34.7136 32.6456 36.6542 29.8396 37.9854C27.0335 39.3167 23.9658 40.0049 20.86 40C9.335 40 0 30.715 0 19.275C0 10.665 5.285 3.27998 12.81 0.149983C13.1848 -0.00843706 13.601 -0.0409521 13.9959 0.0573225C14.3908 0.155597 14.7431 0.379355 15 0.694983Z" fill="black"/>
</svg>
