<svg 
    width="105" 
    height="105" 
    viewBox="0 0 105 105" 
    fill="none" 
    xmlns="http://www.w3.org/2000/svg">
    <circle 
        cx="52.5" 
        cy="52.5" 
        r="52.5" 
        fill="#FF5A5A"/>
    <path 
        d="M58.165 52.9969L73.9165 37.2798C74.6062 36.5899 74.9937 35.6543 74.9937 34.6786C74.9937 33.703 74.6062 32.7673 73.9165 32.0774C73.2267 31.3876 72.2911 31 71.3156 31C70.3401 31 69.4046 31.3876 68.7148 32.0774L53 47.8311L37.2852 32.0774C36.5954 31.3876 35.6599 31 34.6844 31C33.7089 31 32.7733 31.3876 32.0835 32.0774C31.3938 32.7673 31.0063 33.703 31.0063 34.6786C31.0063 35.6543 31.3938 36.5899 32.0835 37.2798L47.835 52.9969L32.0835 68.7139C31.7402 69.0545 31.4677 69.4597 31.2817 69.9062C31.0957 70.3526 31 70.8315 31 71.3151C31 71.7988 31.0957 72.2776 31.2817 72.7241C31.4677 73.1705 31.7402 73.5757 32.0835 73.9163C32.4241 74.2597 32.8292 74.5322 33.2756 74.7182C33.722 74.9042 34.2008 75 34.6844 75C35.1679 75 35.6467 74.9042 36.0931 74.7182C36.5395 74.5322 36.9447 74.2597 37.2852 73.9163L53 58.1626L68.7148 73.9163C69.0554 74.2597 69.4605 74.5322 69.9069 74.7182C70.3533 74.9042 70.8321 75 71.3156 75C71.7992 75 72.278 74.9042 72.7244 74.7182C73.1708 74.5322 73.5759 74.2597 73.9165 73.9163C74.2598 73.5757 74.5323 73.1705 74.7183 72.7241C74.9043 72.2776 75 71.7988 75 71.3151C75 70.8315 74.9043 70.3526 74.7183 69.9062C74.5323 69.4597 74.2598 69.0545 73.9165 68.7139L58.165 52.9969Z" 
        fill="white"/>
</svg>